<svg id="Layout" xmlns="http://www.w3.org/2000/svg" viewBox="0 0 24 24">
    <defs>
        <style>.cls-1{fill:#0063a5;}.cls-2{fill:none;stroke:#d6cfc7;stroke-miterlimit:10;stroke-width:0.55px;}</style>
    </defs>
    <path class="cls-1" d="M19.3,8.21c0,.15-.07.18-.17.06l-.3-.36a.41.41,0,0,0-.44-.11L18,8c-.14.06-.19,0-.11-.14l.25-.39a.41.41,0,0,0,0-.46l-.3-.36c-.09-.12-.05-.19.1-.15l.45.12a.42.42,0,0,0,.43-.17L19,6c.08-.13.16-.11.17.05l0,.47a.42.42,0,0,0,.29.35l.46.11c.15,0,.15.12,0,.18l-.44.17a.42.42,0,0,0-.24.39Z"/>
    <path class="cls-1" d="M6.37,11.49c.13.15.08.23-.11.19l-.56-.13a.52.52,0,0,0-.51.22l-.3.49c-.09.16-.19.14-.2,0l-.06-.57a.49.49,0,0,0-.36-.42l-.56-.13c-.19,0-.2-.14,0-.21l.53-.23a.53.53,0,0,0,.29-.48L4.45,9.6c0-.19.08-.23.2-.08L5,10a.49.49,0,0,0,.54.12l.53-.22c.18-.07.24,0,.14.16L6,10.5a.5.5,0,0,0,0,.56Z"/>
    <path class="cls-1" d="M17.18,11.47V18a2,2,0,0,1-2,2c-2.09,0-4.17,0-6.25,0a2,2,0,0,1-2-2c0-.4,0-.8,0-1.21V5a2,2,0,0,1,1.34-2,2.21,2.21,0,0,1,.67-.13q3.12,0,6.23,0a2,2,0,0,1,1.95,1.53,2.78,2.78,0,0,1,.06.64Q17.18,8.22,17.18,11.47ZM7.92,4.71V17.28h8.25V4.71Zm4.13,14.77a.82.82,0,0,0,.83-.83.83.83,0,1,0-1.66,0A.83.83,0,0,0,12.05,19.48Zm0-15.78h-1.4c-.14,0-.27,0-.28.2s.13.2.27.2c.93,0,1.87,0,2.8,0,.14,0,.28,0,.27-.2s-.13-.2-.28-.2Z"/>
    <path class="cls-1" d="M14.61,7c-.86-.23-2.18.8-2.18.8v.8h1a2.4,2.4,0,0,0,1.32-.66C15,7.54,15,7.05,14.61,7ZM12.47,8.17s1.64-1,1.86-.72S13.24,8.13,12.47,8.17Z"/>
    <path class="cls-1" d="M14.88,8.55H9.21a.35.35,0,0,0-.34.34v1.57a.34.34,0,0,0,.34.33h2.23l-.09-.06V8.64h1.4v2.09l-.11.06h2.24a.34.34,0,0,0,.34-.33V8.89A.34.34,0,0,0,14.88,8.55Z"/>
    <path class="cls-1" d="M12.72,10.75l-.14.08V14.5H11.51V10.84l-.14-.09H9.25v3.48a.34.34,0,0,0,.34.34h4.92a.34.34,0,0,0,.34-.34V10.75Z"/>
    <rect class="cls-1" x="11.61" y="7.67" width="0.83" height="0.9"/>
    <path class="cls-1" d="M9.43,7c-.36.1-.41.59-.1,1a2.42,2.42,0,0,0,1.33.66h.95v-.8S10.29,6.72,9.43,7Zm.28.5c.22-.33,1.86.72,1.86.72C10.81,8.13,9.52,7.74,9.71,7.45Z"/>
</svg>
