
<svg version="1.0" xmlns="http://www.w3.org/2000/svg"
 width="50px" height="50px" viewBox="0 0 225.000000 225.000000"
 preserveAspectRatio="xMidYMid meet">

<g transform="translate(0.000000,225.000000) scale(0.100000,-0.100000)"
fill="#006BB1" stroke="none">
<path d="M1000 2239 c-163 -16 -367 -92 -511 -190 -81 -55 -198 -166 -260
-248 -65 -87 -153 -264 -184 -374 -87 -310 -28 -667 156 -938 55 -81 166 -198
248 -260 87 -65 264 -153 374 -184 287 -81 624 -36 876 116 309 188 507 502
541 857 30 325 -79 643 -303 879 -91 96 -179 161 -297 222 -200 103 -415 143
-640 120z m197 -409 c85 -14 144 -41 198 -91 62 -57 93 -112 111 -200 28 -131
7 -235 -98 -484 -58 -140 -287 -595 -299 -595 -11 0 -223 423 -284 565 -26 61
-63 157 -83 215 -32 95 -36 115 -36 210 0 84 5 116 23 161 64 166 252 254 468
219z"/>
<path d="M1009 1617 c-114 -61 -145 -219 -62 -318 64 -75 181 -95 267 -45 144
84 132 308 -21 372 -51 22 -133 18 -184 -9z"/>
</g>
</svg>
